{"title":"This Is The End 2013 DVD-R (RLG)","uid":9339474,"size":4696152064,"categoryP":"video","categoryS":"movies_dvdr","magnet":"?xt=urn:btih:2678c02655da9af36e8e6d3c405ae94a3cdb75d1&amp;dn=This+Is+The+End+2013+DVD-R+%28RLG%29&amp;tr=udp%3A%2F%2Ftracker.openbittorrent.com%3A80&amp;tr=udp%3A%2F%2Fopen.demonii.com%3A1337&amp;tr=udp%3A%2F%2Ftracker.coppersurfer.tk%3A6969&amp;tr=udp%3A%2F%2Fexodus.desync.com%3A6969","seeders":1,"leechers":0,"uploader":"RedLegsGreaves","files":-1,"time":1386903158,"description":" &lt;a href=&quot;http://www.imdb.com/title/tt1245492/?ref_=fn_al_tt_1&quot; rel=&quot;nofollow&quot; target=&quot;_NEW&quot;&gt;http://www.imdb.com/title/tt1245492/?ref_=fn_al_tt_1&lt;/a&gt;\nWhile attending a party at James Franco's house, Seth Rogen, Jay Baruchel and many other celebrities are faced with the apocalypse.\n\n\nRelease date: 14 June 2013\nLanguage: English\nSubtitles: English, Hindi, Arabic, Polish, Hebrew, Hungarian, Greek, Czech, Croatian, Bulgarian, Estonian, Icelandic, Latvian, Lithuanian, Portuguese, Romanian, Russian, Slovak, Turkish, Ukrainian, Slovenian.\n\n\nFor Newer Users.\nSimply Drag downloaded folder to your Media Player. This is a PAL DVD.\nThis is ripped so you would have best quality, menu, bonus/special feature, language options etc.\nNote:DVDs may not have have all* features.\n\n\n\nVideo\nID : 224 (0xE0)\nFormat : MPEG Video\nFormat version : Version 2\nFormat profile : Main@Main\nFormat settings, BVOP : Yes\nFormat settings, Matrix : Custom\nFormat settings, GOP : M=3, N=12\nDuration : 25mn 7s\nBit rate mode : Variable\nBit rate : 5 135 Kbps\nMaximum bit rate : 7 826 Kbps\nWidth : 720 pixels\nHeight : 576 pixels\nDisplay aspect ratio : 16:9\nFrame rate : 25.000 fps\nStandard : PAL\nColor space : YUV\nChroma subsampling : 4:2:0\nBit depth : 8 bits\nScan type : Progressive\nScan order : Top Field First\nCompression mode : Lossy\nBits/(Pixel*Frame) : 0.495\nTime code of first frame : 00:25:02:08\nTime code source : Group of pictures header\nStream size : 923 MiB (90%)\n\nAudio\nID : 189 (0xBD)-128 (0x80)\nFormat : AC-3\nFormat/Info : Audio Coding 3\nMode extension : CM (complete main)\nFormat settings, Endianness : Big\nMuxing mode : DVD-Video\nDuration : 25mn 8s\nBit rate mode : Constant\nBit rate : 448 Kbps\nChannel count : 6 channels\nChannel positions : Front: L C R, Side: L R, LFE\nSampling rate : 48.0 KHz\nBit depth : 16 bits\nCompression mode : Lossy\nDelay relative to video : -448ms\nStream size : 80.5 MiB (8%)","torrent":{"xt":"urn:btih:2678c02655da9af36e8e6d3c405ae94a3cdb75d1","amp;dn":"This+Is+The+End+2013+DVD-R+%28RLG%29","amp;tr":["udp%3A%2F%2Ftracker.openbittorrent.com%3A80","udp%3A%2F%2Fopen.demonii.com%3A1337","udp%3A%2F%2Ftracker.coppersurfer.tk%3A6969","udp%3A%2F%2Fexodus.desync.com%3A6969"],"infoHash":"2678c02655da9af36e8e6d3c405ae94a3cdb75d1","infoHashBuffer":{"type":"Buffer","data":[38,120,192,38,85,218,154,243,110,142,109,60,64,90,233,74,60,219,117,209]},"announce":[],"urlList":[]}}